<svg xmlns="http://www.w3.org/2000/svg" xmlns:xlink="http://www.w3.org/1999/xlink" width="500" zoomAndPan="magnify" viewBox="0 0 375 374.999991" height="500" preserveAspectRatio="xMidYMid meet" version="1.0"><defs><clipPath id="0d24c26605"><path d="M 15.234375 0 L 359.484375 0 L 359.484375 375 L 15.234375 375 Z M 15.234375 0 " clip-rule="nonzero"/></clipPath><clipPath id="aeeba5d666"><path d="M 183 140 L 359.484375 140 L 359.484375 235 L 183 235 Z M 183 140 " clip-rule="nonzero"/></clipPath><clipPath id="d1ec2d7e84"><path d="M 301 140 L 359.484375 140 L 359.484375 329 L 301 329 Z M 301 140 " clip-rule="nonzero"/></clipPath></defs><g clip-path="url(#0d24c26605)"><path fill="#ffffff" d="M 100.191406 187.5 C 100.191406 118.574219 148.351562 71.503906 218.839844 71.503906 C 245.460938 71.503906 268.878906 78.292969 289.796875 92.65625 L 359.738281 55.34375 C 324.613281 19.125 274.417969 0 214.703125 0 C 99.175781 0 15.261719 78.214844 15.261719 187.5 C 15.261719 296.785156 99.175781 375 214.703125 375 C 258.496094 375 297.136719 364.695312 328.4375 345.023438 L 289.71875 282.34375 C 268.800781 296.707031 245.460938 303.496094 218.761719 303.496094 C 148.351562 303.496094 100.191406 256.425781 100.191406 187.5 Z M 100.191406 187.5 " fill-opacity="1" fill-rule="evenodd"/></g><g clip-path="url(#aeeba5d666)"><path fill="#00d9d2" d="M 301.351562 234.414062 L 359.738281 140.898438 L 183.636719 234.882812 L 283.085938 234.492188 Z M 301.351562 234.414062 " fill-opacity="1" fill-rule="evenodd"/></g><g clip-path="url(#d1ec2d7e84)"><path fill="#008c87" d="M 359.738281 140.898438 L 301.351562 234.414062 L 359.738281 328.945312 Z M 359.738281 140.898438 " fill-opacity="1" fill-rule="evenodd"/></g></svg>